M48
;GenerationSoftware,Autodesk,EAGLE,9.6.2*%
;CreationDate,2023-05-19T17:23:49Z*%
FMAT,2
ICI,OFF
METRIC,TZ,000.000
T3C0.300
T2C1.016
T1C1.331
%
G90
M71
T1
X11720Y13260
X11720Y9760
X11720Y6260
X11720Y2760
X25590Y2740
X25590Y6240
X25590Y9740
X25590Y13240
T2
X45200Y53900
X45250Y44700
X45250Y47800
X45200Y50850
T3
X17850Y15450
X20721Y10846
X21491Y11600
X23400Y23600
X23400Y24450
X30550Y12150
X25649Y55915
X31350Y23246
X31350Y22250
X19519Y6861
X20200Y7550
X36000Y24450
X36950Y25400
X25750Y41250
X34900Y40750
X17650Y36900
X49014Y41690
X20550Y15100
X20552Y16303
X15300Y9850
X14400Y8950
X17350Y23200
X18050Y23900
X17100Y16200
X31200Y12800
M30