G04 EAGLE Gerber RS-274X export*
G75*
%MOMM*%
%FSLAX34Y34*%
%LPD*%
%INBottom Copper*%
%IPPOS*%
%AMOC8*
5,1,8,0,0,1.08239X$1,22.5*%
G01*
%ADD10C,1.997100*%
%ADD11C,1.879600*%
%ADD12C,0.706400*%
%ADD13C,1.000000*%

G36*
X422492Y357238D02*
X422492Y357238D01*
X422547Y357236D01*
X422649Y357258D01*
X422753Y357271D01*
X422804Y357291D01*
X422858Y357303D01*
X422952Y357349D01*
X423049Y357388D01*
X423093Y357420D01*
X423143Y357445D01*
X423222Y357513D01*
X423306Y357574D01*
X423341Y357617D01*
X423383Y357653D01*
X423483Y357780D01*
X423513Y357823D01*
X433270Y366477D01*
X444816Y372542D01*
X457479Y375666D01*
X501565Y375666D01*
X501683Y375681D01*
X501802Y375688D01*
X501840Y375701D01*
X501881Y375706D01*
X501991Y375749D01*
X502104Y375786D01*
X502139Y375808D01*
X502176Y375823D01*
X502272Y375892D01*
X502373Y375956D01*
X502401Y375986D01*
X502434Y376009D01*
X502510Y376101D01*
X502591Y376188D01*
X502611Y376223D01*
X502636Y376254D01*
X502687Y376362D01*
X502745Y376466D01*
X502755Y376506D01*
X502772Y376542D01*
X502794Y376659D01*
X502824Y376774D01*
X502828Y376834D01*
X502832Y376854D01*
X502830Y376875D01*
X502834Y376935D01*
X502834Y556565D01*
X502819Y556683D01*
X502812Y556802D01*
X502799Y556840D01*
X502794Y556881D01*
X502751Y556991D01*
X502714Y557104D01*
X502692Y557139D01*
X502677Y557176D01*
X502608Y557272D01*
X502544Y557373D01*
X502514Y557401D01*
X502491Y557434D01*
X502399Y557510D01*
X502312Y557591D01*
X502277Y557611D01*
X502246Y557636D01*
X502138Y557687D01*
X502034Y557745D01*
X501994Y557755D01*
X501958Y557772D01*
X501841Y557794D01*
X501726Y557824D01*
X501666Y557828D01*
X501646Y557832D01*
X501625Y557830D01*
X501565Y557834D01*
X418989Y557834D01*
X411577Y560904D01*
X405904Y566577D01*
X402834Y573989D01*
X402834Y578205D01*
X402819Y578323D01*
X402812Y578442D01*
X402799Y578481D01*
X402794Y578521D01*
X402751Y578632D01*
X402714Y578745D01*
X402692Y578779D01*
X402677Y578816D01*
X402608Y578913D01*
X402544Y579013D01*
X402514Y579041D01*
X402491Y579074D01*
X402399Y579150D01*
X402312Y579231D01*
X402277Y579251D01*
X402246Y579277D01*
X402138Y579327D01*
X402034Y579385D01*
X401994Y579395D01*
X401958Y579412D01*
X401841Y579435D01*
X401726Y579464D01*
X401666Y579468D01*
X401646Y579472D01*
X401625Y579471D01*
X401565Y579475D01*
X335400Y579475D01*
X335261Y579457D01*
X335121Y579443D01*
X335096Y579436D01*
X335085Y579435D01*
X335066Y579427D01*
X334966Y579398D01*
X329235Y577312D01*
X318765Y577312D01*
X313034Y579398D01*
X312896Y579429D01*
X312760Y579464D01*
X312735Y579466D01*
X312724Y579468D01*
X312704Y579468D01*
X312600Y579475D01*
X251435Y579475D01*
X251317Y579460D01*
X251198Y579452D01*
X251160Y579440D01*
X251119Y579435D01*
X251009Y579391D01*
X250896Y579354D01*
X250861Y579333D01*
X250824Y579318D01*
X250728Y579248D01*
X250627Y579184D01*
X250599Y579155D01*
X250566Y579131D01*
X250490Y579039D01*
X250409Y578952D01*
X250389Y578917D01*
X250364Y578886D01*
X250313Y578778D01*
X250255Y578674D01*
X250245Y578635D01*
X250228Y578598D01*
X250206Y578481D01*
X250176Y578366D01*
X250172Y578306D01*
X250168Y578286D01*
X250170Y578265D01*
X250166Y578205D01*
X250166Y572458D01*
X250167Y572448D01*
X250166Y572439D01*
X250187Y572290D01*
X250206Y572142D01*
X250209Y572133D01*
X250210Y572124D01*
X250259Y571983D01*
X250258Y569971D01*
X250258Y567698D01*
X250257Y567684D01*
X250244Y532757D01*
X250242Y527798D01*
X247449Y516100D01*
X242020Y505368D01*
X234252Y496188D01*
X225745Y489926D01*
X225719Y489902D01*
X225689Y489883D01*
X225604Y489793D01*
X225514Y489707D01*
X225495Y489677D01*
X225471Y489652D01*
X225411Y489543D01*
X225345Y489438D01*
X225335Y489404D01*
X225318Y489373D01*
X225286Y489253D01*
X225249Y489135D01*
X225247Y489099D01*
X225238Y489065D01*
X225228Y488905D01*
X225227Y487636D01*
X225234Y487585D01*
X225231Y487535D01*
X225253Y487428D01*
X225267Y487320D01*
X225286Y487273D01*
X225296Y487223D01*
X225344Y487126D01*
X225384Y487025D01*
X225414Y486984D01*
X225436Y486938D01*
X225507Y486855D01*
X225571Y486767D01*
X225610Y486735D01*
X225643Y486696D01*
X225732Y486634D01*
X225816Y486564D01*
X225861Y486543D01*
X225903Y486513D01*
X226050Y486447D01*
X229596Y485115D01*
X237261Y479029D01*
X242693Y470887D01*
X245367Y461472D01*
X245028Y451691D01*
X241707Y442484D01*
X235724Y434739D01*
X227655Y429199D01*
X218276Y426400D01*
X208491Y426609D01*
X199241Y429807D01*
X191417Y435687D01*
X185770Y443681D01*
X184800Y446780D01*
X184764Y446858D01*
X184738Y446940D01*
X184698Y447003D01*
X184668Y447070D01*
X184614Y447136D01*
X184568Y447209D01*
X184514Y447260D01*
X184468Y447317D01*
X184399Y447368D01*
X184336Y447427D01*
X184271Y447463D01*
X184212Y447507D01*
X184133Y447539D01*
X184058Y447581D01*
X183986Y447599D01*
X183918Y447627D01*
X183833Y447639D01*
X183750Y447660D01*
X183614Y447669D01*
X183603Y447670D01*
X183599Y447670D01*
X183589Y447670D01*
X146435Y447684D01*
X146317Y447669D01*
X146198Y447662D01*
X146160Y447650D01*
X146120Y447645D01*
X146009Y447601D01*
X145896Y447564D01*
X145862Y447542D01*
X145824Y447528D01*
X145728Y447458D01*
X145627Y447394D01*
X145599Y447364D01*
X145567Y447341D01*
X145491Y447249D01*
X145409Y447162D01*
X145389Y447127D01*
X145364Y447096D01*
X145313Y446988D01*
X145255Y446884D01*
X145245Y446845D01*
X145228Y446808D01*
X145206Y446691D01*
X145176Y446576D01*
X145172Y446516D01*
X145168Y446496D01*
X145170Y446476D01*
X145166Y446415D01*
X145166Y358500D01*
X145181Y358382D01*
X145188Y358263D01*
X145201Y358225D01*
X145206Y358184D01*
X145249Y358074D01*
X145286Y357961D01*
X145308Y357926D01*
X145323Y357889D01*
X145392Y357793D01*
X145456Y357692D01*
X145486Y357664D01*
X145509Y357631D01*
X145601Y357556D01*
X145688Y357474D01*
X145723Y357454D01*
X145754Y357429D01*
X145862Y357378D01*
X145966Y357320D01*
X146006Y357310D01*
X146042Y357293D01*
X146159Y357271D01*
X146274Y357241D01*
X146334Y357237D01*
X146354Y357233D01*
X146375Y357235D01*
X146435Y357231D01*
X422438Y357231D01*
X422492Y357238D01*
G37*
%LPC*%
G36*
X449827Y528077D02*
X449827Y528077D01*
X445813Y529740D01*
X442740Y532813D01*
X441077Y536827D01*
X441077Y541173D01*
X442740Y545187D01*
X445813Y548260D01*
X449827Y549923D01*
X454173Y549923D01*
X458187Y548260D01*
X461260Y545187D01*
X462923Y541173D01*
X462923Y536827D01*
X461260Y532813D01*
X458187Y529740D01*
X454173Y528077D01*
X449827Y528077D01*
G37*
%LPD*%
%LPC*%
G36*
X449827Y497577D02*
X449827Y497577D01*
X445813Y499240D01*
X442740Y502313D01*
X441077Y506327D01*
X441077Y510673D01*
X442740Y514687D01*
X445813Y517760D01*
X449827Y519423D01*
X454173Y519423D01*
X458187Y517760D01*
X461260Y514687D01*
X462923Y510673D01*
X462923Y506327D01*
X461260Y502313D01*
X458187Y499240D01*
X454173Y497577D01*
X449827Y497577D01*
G37*
%LPD*%
%LPC*%
G36*
X450327Y467077D02*
X450327Y467077D01*
X446313Y468740D01*
X443240Y471813D01*
X441577Y475827D01*
X441577Y480173D01*
X443240Y484187D01*
X446313Y487260D01*
X450327Y488923D01*
X454673Y488923D01*
X458687Y487260D01*
X461760Y484187D01*
X463423Y480173D01*
X463423Y475827D01*
X461760Y471813D01*
X458687Y468740D01*
X454673Y467077D01*
X450327Y467077D01*
G37*
%LPD*%
%LPC*%
G36*
X455039Y449539D02*
X455039Y449539D01*
X455039Y458685D01*
X455296Y458645D01*
X457083Y458064D01*
X458757Y457211D01*
X460278Y456106D01*
X461606Y454778D01*
X462711Y453257D01*
X463564Y451583D01*
X464145Y449796D01*
X464185Y449539D01*
X455039Y449539D01*
G37*
%LPD*%
%LPC*%
G36*
X440815Y449539D02*
X440815Y449539D01*
X440855Y449796D01*
X441436Y451583D01*
X442289Y453257D01*
X443394Y454778D01*
X444722Y456106D01*
X446243Y457211D01*
X447917Y458064D01*
X449704Y458645D01*
X449961Y458685D01*
X449961Y449539D01*
X440815Y449539D01*
G37*
%LPD*%
%LPC*%
G36*
X455039Y444461D02*
X455039Y444461D01*
X464185Y444461D01*
X464145Y444204D01*
X463564Y442417D01*
X462711Y440743D01*
X461606Y439222D01*
X460278Y437894D01*
X458757Y436789D01*
X457083Y435936D01*
X455296Y435355D01*
X455039Y435315D01*
X455039Y444461D01*
G37*
%LPD*%
%LPC*%
G36*
X449704Y435355D02*
X449704Y435355D01*
X447917Y435936D01*
X446243Y436789D01*
X444722Y437894D01*
X443394Y439222D01*
X442289Y440743D01*
X441436Y442417D01*
X440855Y444204D01*
X440815Y444461D01*
X449961Y444461D01*
X449961Y435315D01*
X449704Y435355D01*
G37*
%LPD*%
%LPC*%
G36*
X452499Y446999D02*
X452499Y446999D01*
X452499Y447001D01*
X452501Y447001D01*
X452501Y446999D01*
X452499Y446999D01*
G37*
%LPD*%
D10*
X117200Y132600D03*
X117200Y97600D03*
X117200Y62600D03*
X117200Y27600D03*
X255900Y27400D03*
X255900Y62400D03*
X255900Y97400D03*
X255900Y132400D03*
D11*
X452500Y447000D03*
X452500Y478000D03*
X452000Y508500D03*
X452000Y539000D03*
D12*
X256490Y559146D03*
X257500Y412500D03*
X349000Y407500D03*
X176500Y369000D03*
X490145Y416904D03*
X205500Y151000D03*
X205520Y163032D03*
D13*
X205459Y167251D02*
X210687Y172478D01*
X205459Y167251D02*
X205459Y163093D01*
X205520Y163032D01*
D12*
X153000Y98500D03*
X144000Y89500D03*
D13*
X153000Y98500D02*
X205500Y151000D01*
X153000Y98500D02*
X144000Y89500D01*
X166500Y225000D02*
X173500Y232000D01*
X166500Y225000D02*
X166500Y166500D01*
X171000Y162000D01*
D12*
X173500Y232000D03*
X180500Y239000D03*
D13*
X173500Y232000D01*
D12*
X171000Y162000D03*
X178500Y154500D03*
D13*
X180000Y153000D02*
X171000Y162000D01*
X234000Y135244D02*
X234000Y236000D01*
D12*
X207215Y108459D03*
X214906Y115995D03*
D13*
X207215Y108459D02*
X234000Y135244D01*
X207369Y108459D02*
X207215Y108459D01*
X207369Y108459D02*
X214906Y115995D01*
D12*
X234000Y236000D03*
X234000Y244500D03*
D13*
X234000Y246500D02*
X234000Y236000D01*
X234000Y246500D02*
X239500Y252000D01*
D12*
X305500Y121500D03*
X312000Y128000D03*
X313500Y232459D03*
X313500Y222500D03*
D13*
X313500Y232459D02*
X313500Y129500D01*
X312000Y128000D01*
X305500Y121500D01*
X280000Y90500D02*
X280000Y220000D01*
X280000Y90500D02*
X269500Y80000D01*
D12*
X195187Y68606D03*
X202000Y75500D03*
D13*
X206581Y80000D02*
X195187Y68606D01*
X206581Y80000D02*
X269500Y80000D01*
D12*
X360000Y244500D03*
X369500Y254000D03*
D13*
X360000Y244500D02*
X304500Y244500D01*
X280000Y220000D01*
X360000Y244500D02*
X369500Y254000D01*
M02*
