G04 EAGLE Gerber RS-274X export*
G75*
%MOMM*%
%FSLAX34Y34*%
%LPD*%
%IN*%
%IPPOS*%
%AMOC8*
5,1,8,0,0,1.08239X$1,22.5*%
G01*
%ADD10C,0.254000*%


D10*
X0Y68100D02*
X50000Y68100D01*
X52615Y67986D01*
X55209Y67644D01*
X57765Y67078D01*
X60261Y66291D01*
X62679Y65289D01*
X65000Y64081D01*
X67207Y62675D01*
X69284Y61081D01*
X71213Y59313D01*
X72981Y57384D01*
X74575Y55307D01*
X75981Y53100D01*
X77189Y50779D01*
X78191Y48361D01*
X78978Y45865D01*
X79544Y43309D01*
X79886Y40715D01*
X80000Y38100D01*
X80000Y0D01*
X292880Y0D01*
X292894Y37064D01*
X292894Y37064D01*
X293013Y39766D01*
X293367Y42447D01*
X293953Y45087D01*
X294768Y47666D01*
X295803Y50164D01*
X297053Y52562D01*
X298507Y54842D01*
X300154Y56987D01*
X301982Y58981D01*
X303977Y60807D01*
X306123Y62452D01*
X308404Y63905D01*
X310803Y65153D01*
X313302Y66187D01*
X315882Y66999D01*
X318522Y67583D01*
X321204Y67935D01*
X323906Y68052D01*
X409024Y68020D01*
X409024Y186464D01*
X389024Y186464D01*
X388152Y186502D01*
X387287Y186616D01*
X386436Y186805D01*
X385604Y187067D01*
X384798Y187401D01*
X384024Y187804D01*
X383288Y188272D01*
X382596Y188803D01*
X381953Y189393D01*
X381363Y190036D01*
X380832Y190728D01*
X380364Y191464D01*
X379961Y192238D01*
X379627Y193044D01*
X379365Y193876D01*
X379176Y194727D01*
X379062Y195592D01*
X379024Y196464D01*
X379024Y228464D01*
X379062Y229335D01*
X379176Y230200D01*
X379365Y231052D01*
X379627Y231884D01*
X379961Y232690D01*
X380364Y233464D01*
X380832Y234200D01*
X381363Y234892D01*
X381953Y235535D01*
X382596Y236124D01*
X383288Y236655D01*
X384024Y237124D01*
X384798Y237527D01*
X385604Y237861D01*
X386436Y238123D01*
X387287Y238312D01*
X388152Y238426D01*
X389024Y238464D01*
X420824Y238464D01*
X420824Y316703D01*
X420666Y318209D01*
X420500Y322000D01*
X420666Y325791D01*
X421161Y329554D01*
X421982Y333259D01*
X423123Y336878D01*
X424576Y340384D01*
X426328Y343750D01*
X428367Y346951D01*
X430677Y349961D01*
X433241Y352759D01*
X436039Y355323D01*
X439049Y357633D01*
X442250Y359672D01*
X445616Y361424D01*
X449122Y362877D01*
X452741Y364018D01*
X456446Y364839D01*
X460209Y365334D01*
X464000Y365500D01*
X513000Y365500D01*
X513000Y568000D01*
X423000Y568000D01*
X422128Y568038D01*
X421264Y568152D01*
X420412Y568341D01*
X419580Y568603D01*
X418774Y568937D01*
X418000Y569340D01*
X417264Y569808D01*
X416572Y570340D01*
X415929Y570929D01*
X415340Y571572D01*
X414808Y572264D01*
X414340Y573000D01*
X413937Y573774D01*
X413603Y574580D01*
X413341Y575412D01*
X413152Y576264D01*
X413038Y577128D01*
X413000Y578000D01*
X413000Y640000D01*
X240000Y640000D01*
X240000Y569961D01*
X240092Y569961D01*
X240079Y533815D01*
X240052Y532363D01*
X239769Y528797D01*
X239175Y525270D01*
X238276Y521808D01*
X237079Y518437D01*
X235593Y515184D01*
X233829Y512072D01*
X231800Y509127D01*
X229523Y506369D01*
X227014Y503820D01*
X224292Y501499D01*
X221378Y499425D01*
X218294Y497612D01*
X215065Y496075D01*
X215058Y478639D01*
X216050Y478568D01*
X217864Y478314D01*
X219649Y477903D01*
X221392Y477338D01*
X223079Y476623D01*
X224697Y475764D01*
X226234Y474767D01*
X227679Y473640D01*
X229019Y472392D01*
X230246Y471031D01*
X231349Y469569D01*
X232321Y468016D01*
X233154Y466384D01*
X233841Y464686D01*
X234378Y462934D01*
X234760Y461142D01*
X234985Y459324D01*
X235050Y457493D01*
X234955Y455664D01*
X234701Y453849D01*
X234290Y452064D01*
X233725Y450321D01*
X233010Y448634D01*
X232151Y447016D01*
X231155Y445479D01*
X230028Y444035D01*
X228779Y442694D01*
X227418Y441467D01*
X225956Y440364D01*
X224403Y439392D01*
X222771Y438559D01*
X221073Y437872D01*
X219321Y437335D01*
X217530Y436953D01*
X215711Y436729D01*
X213881Y436664D01*
X212051Y436758D01*
X210237Y437012D01*
X208451Y437423D01*
X206709Y437988D01*
X205022Y438703D01*
X203404Y439562D01*
X201867Y440559D01*
X200422Y441686D01*
X199082Y442934D01*
X197855Y444295D01*
X196751Y445757D01*
X195780Y447310D01*
X194947Y448942D01*
X194259Y450640D01*
X193723Y452392D01*
X193341Y454184D01*
X193116Y456002D01*
X193051Y457833D01*
X135000Y457854D01*
X135000Y323107D01*
X134619Y314392D01*
X133481Y305742D01*
X131593Y297225D01*
X128969Y288905D01*
X125631Y280845D01*
X121603Y273107D01*
X116915Y265750D01*
X111604Y258828D01*
X105711Y252397D01*
X29289Y175975D01*
X23396Y169543D01*
X18085Y162622D01*
X13397Y155264D01*
X9369Y147526D01*
X6031Y139466D01*
X3407Y131146D01*
X1519Y122629D01*
X381Y113980D01*
X0Y105264D01*
X0Y68100D01*
X389024Y107396D02*
X389024Y108604D01*
X388951Y109811D01*
X388805Y111011D01*
X388587Y112200D01*
X388298Y113373D01*
X387938Y114527D01*
X387510Y115657D01*
X387014Y116759D01*
X386452Y117830D01*
X385827Y118864D01*
X385140Y119859D01*
X384395Y120810D01*
X383593Y121715D01*
X382739Y122569D01*
X381834Y123371D01*
X380882Y124116D01*
X379888Y124803D01*
X378853Y125428D01*
X377783Y125990D01*
X376681Y126486D01*
X375551Y126915D01*
X374397Y127274D01*
X373223Y127563D01*
X372034Y127781D01*
X370835Y127927D01*
X369628Y128000D01*
X368419Y128000D01*
X367213Y127927D01*
X366013Y127781D01*
X364824Y127563D01*
X363651Y127274D01*
X362497Y126915D01*
X361367Y126486D01*
X360264Y125990D01*
X359194Y125428D01*
X358160Y124803D01*
X357165Y124116D01*
X356214Y123371D01*
X355309Y122569D01*
X354454Y121715D01*
X353653Y120810D01*
X352907Y119859D01*
X352221Y118864D01*
X351596Y117830D01*
X351034Y116759D01*
X350538Y115657D01*
X350109Y114527D01*
X349750Y113373D01*
X349460Y112200D01*
X349242Y111011D01*
X349097Y109811D01*
X349024Y108604D01*
X349024Y107396D01*
X349097Y106189D01*
X349242Y104989D01*
X349460Y103800D01*
X349750Y102627D01*
X350109Y101473D01*
X350538Y100343D01*
X351034Y99241D01*
X351596Y98170D01*
X352221Y97136D01*
X352907Y96141D01*
X353653Y95190D01*
X354454Y94285D01*
X355309Y93431D01*
X356214Y92629D01*
X357165Y91884D01*
X358160Y91197D01*
X359194Y90572D01*
X360264Y90010D01*
X361367Y89514D01*
X362497Y89085D01*
X363651Y88726D01*
X364824Y88437D01*
X366013Y88219D01*
X367213Y88073D01*
X368419Y88000D01*
X369628Y88000D01*
X370835Y88073D01*
X372034Y88219D01*
X373223Y88437D01*
X374397Y88726D01*
X375551Y89085D01*
X376681Y89514D01*
X377783Y90010D01*
X378853Y90572D01*
X379888Y91197D01*
X380882Y91884D01*
X381834Y92629D01*
X382739Y93431D01*
X383593Y94285D01*
X384395Y95190D01*
X385140Y96141D01*
X385827Y97136D01*
X386452Y98170D01*
X387014Y99241D01*
X387510Y100343D01*
X387938Y101473D01*
X388298Y102627D01*
X388587Y103800D01*
X388805Y104989D01*
X388951Y106189D01*
X389024Y107396D01*
X60000Y107496D02*
X60000Y108704D01*
X59927Y109911D01*
X59781Y111111D01*
X59563Y112300D01*
X59274Y113473D01*
X58915Y114627D01*
X58486Y115757D01*
X57990Y116859D01*
X57428Y117930D01*
X56803Y118964D01*
X56116Y119959D01*
X55371Y120910D01*
X54569Y121815D01*
X53715Y122669D01*
X52810Y123471D01*
X51859Y124216D01*
X50864Y124903D01*
X49830Y125528D01*
X48759Y126090D01*
X47657Y126586D01*
X46527Y127015D01*
X45373Y127374D01*
X44200Y127663D01*
X43011Y127881D01*
X41811Y128027D01*
X40604Y128100D01*
X39396Y128100D01*
X38189Y128027D01*
X36989Y127881D01*
X35800Y127663D01*
X34627Y127374D01*
X33473Y127015D01*
X32343Y126586D01*
X31241Y126090D01*
X30170Y125528D01*
X29136Y124903D01*
X28141Y124216D01*
X27190Y123471D01*
X26285Y122669D01*
X25431Y121815D01*
X24629Y120910D01*
X23884Y119959D01*
X23197Y118964D01*
X22572Y117930D01*
X22010Y116859D01*
X21514Y115757D01*
X21085Y114627D01*
X20726Y113473D01*
X20437Y112300D01*
X20219Y111111D01*
X20073Y109911D01*
X20000Y108704D01*
X20000Y107496D01*
X20073Y106289D01*
X20219Y105089D01*
X20437Y103900D01*
X20726Y102727D01*
X21085Y101573D01*
X21514Y100443D01*
X22010Y99341D01*
X22572Y98270D01*
X23197Y97236D01*
X23884Y96241D01*
X24629Y95290D01*
X25431Y94385D01*
X26285Y93531D01*
X27190Y92729D01*
X28141Y91984D01*
X29136Y91297D01*
X30170Y90672D01*
X31241Y90110D01*
X32343Y89614D01*
X33473Y89185D01*
X34627Y88826D01*
X35800Y88537D01*
X36989Y88319D01*
X38189Y88173D01*
X39396Y88100D01*
X40604Y88100D01*
X41811Y88173D01*
X43011Y88319D01*
X44200Y88537D01*
X45373Y88826D01*
X46527Y89185D01*
X47657Y89614D01*
X48759Y90110D01*
X49830Y90672D01*
X50864Y91297D01*
X51859Y91984D01*
X52810Y92729D01*
X53715Y93531D01*
X54569Y94385D01*
X55371Y95290D01*
X56116Y96241D01*
X56803Y97236D01*
X57428Y98270D01*
X57990Y99341D01*
X58486Y100443D01*
X58915Y101573D01*
X59274Y102727D01*
X59563Y103900D01*
X59781Y105089D01*
X59927Y106289D01*
X60000Y107496D01*
X389024Y107396D02*
X389024Y108604D01*
X388951Y109811D01*
X388805Y111011D01*
X388587Y112200D01*
X388298Y113373D01*
X387938Y114527D01*
X387510Y115657D01*
X387014Y116759D01*
X386452Y117830D01*
X385827Y118864D01*
X385140Y119859D01*
X384395Y120810D01*
X383593Y121715D01*
X382739Y122569D01*
X381834Y123371D01*
X380882Y124116D01*
X379888Y124803D01*
X378853Y125428D01*
X377783Y125990D01*
X376681Y126486D01*
X375551Y126915D01*
X374397Y127274D01*
X373223Y127563D01*
X372034Y127781D01*
X370835Y127927D01*
X369628Y128000D01*
X368419Y128000D01*
X367213Y127927D01*
X366013Y127781D01*
X364824Y127563D01*
X363651Y127274D01*
X362497Y126915D01*
X361367Y126486D01*
X360264Y125990D01*
X359194Y125428D01*
X358160Y124803D01*
X357165Y124116D01*
X356214Y123371D01*
X355309Y122569D01*
X354454Y121715D01*
X353653Y120810D01*
X352907Y119859D01*
X352221Y118864D01*
X351596Y117830D01*
X351034Y116759D01*
X350538Y115657D01*
X350109Y114527D01*
X349750Y113373D01*
X349460Y112200D01*
X349242Y111011D01*
X349097Y109811D01*
X349024Y108604D01*
X349024Y107396D01*
X349097Y106189D01*
X349242Y104989D01*
X349460Y103800D01*
X349750Y102627D01*
X350109Y101473D01*
X350538Y100343D01*
X351034Y99241D01*
X351596Y98170D01*
X352221Y97136D01*
X352907Y96141D01*
X353653Y95190D01*
X354454Y94285D01*
X355309Y93431D01*
X356214Y92629D01*
X357165Y91884D01*
X358160Y91197D01*
X359194Y90572D01*
X360264Y90010D01*
X361367Y89514D01*
X362497Y89085D01*
X363651Y88726D01*
X364824Y88437D01*
X366013Y88219D01*
X367213Y88073D01*
X368419Y88000D01*
X369628Y88000D01*
X370835Y88073D01*
X372034Y88219D01*
X373223Y88437D01*
X374397Y88726D01*
X375551Y89085D01*
X376681Y89514D01*
X377783Y90010D01*
X378853Y90572D01*
X379888Y91197D01*
X380882Y91884D01*
X381834Y92629D01*
X382739Y93431D01*
X383593Y94285D01*
X384395Y95190D01*
X385140Y96141D01*
X385827Y97136D01*
X386452Y98170D01*
X387014Y99241D01*
X387510Y100343D01*
X387938Y101473D01*
X388298Y102627D01*
X388587Y103800D01*
X388805Y104989D01*
X388951Y106189D01*
X389024Y107396D01*
X344000Y606396D02*
X344000Y607604D01*
X343927Y608811D01*
X343781Y610011D01*
X343563Y611200D01*
X343274Y612373D01*
X342915Y613527D01*
X342486Y614657D01*
X341990Y615759D01*
X341428Y616830D01*
X340803Y617864D01*
X340116Y618859D01*
X339371Y619810D01*
X338569Y620715D01*
X337715Y621569D01*
X336810Y622371D01*
X335859Y623116D01*
X334864Y623803D01*
X333830Y624428D01*
X332759Y624990D01*
X331657Y625486D01*
X330527Y625915D01*
X329373Y626274D01*
X328200Y626563D01*
X327011Y626781D01*
X325811Y626927D01*
X324604Y627000D01*
X323396Y627000D01*
X322189Y626927D01*
X320989Y626781D01*
X319800Y626563D01*
X318627Y626274D01*
X317473Y625915D01*
X316343Y625486D01*
X315241Y624990D01*
X314170Y624428D01*
X313136Y623803D01*
X312141Y623116D01*
X311190Y622371D01*
X310285Y621569D01*
X309431Y620715D01*
X308629Y619810D01*
X307884Y618859D01*
X307197Y617864D01*
X306572Y616830D01*
X306010Y615759D01*
X305514Y614657D01*
X305085Y613527D01*
X304726Y612373D01*
X304437Y611200D01*
X304219Y610011D01*
X304073Y608811D01*
X304000Y607604D01*
X304000Y606396D01*
X304073Y605189D01*
X304219Y603989D01*
X304437Y602800D01*
X304726Y601627D01*
X305085Y600473D01*
X305514Y599343D01*
X306010Y598241D01*
X306572Y597170D01*
X307197Y596136D01*
X307884Y595141D01*
X308629Y594190D01*
X309431Y593285D01*
X310285Y592431D01*
X311190Y591629D01*
X312141Y590884D01*
X313136Y590197D01*
X314170Y589572D01*
X315241Y589010D01*
X316343Y588514D01*
X317473Y588085D01*
X318627Y587726D01*
X319800Y587437D01*
X320989Y587219D01*
X322189Y587073D01*
X323396Y587000D01*
X324604Y587000D01*
X325811Y587073D01*
X327011Y587219D01*
X328200Y587437D01*
X329373Y587726D01*
X330527Y588085D01*
X331657Y588514D01*
X332759Y589010D01*
X333830Y589572D01*
X334864Y590197D01*
X335859Y590884D01*
X336810Y591629D01*
X337715Y592431D01*
X338569Y593285D01*
X339371Y594190D01*
X340116Y595141D01*
X340803Y596136D01*
X341428Y597170D01*
X341990Y598241D01*
X342486Y599343D01*
X342915Y600473D01*
X343274Y601627D01*
X343563Y602800D01*
X343781Y603989D01*
X343927Y605189D01*
X344000Y606396D01*
X60000Y107496D02*
X60000Y108704D01*
X59927Y109911D01*
X59781Y111111D01*
X59563Y112300D01*
X59274Y113473D01*
X58915Y114627D01*
X58486Y115757D01*
X57990Y116859D01*
X57428Y117930D01*
X56803Y118964D01*
X56116Y119959D01*
X55371Y120910D01*
X54569Y121815D01*
X53715Y122669D01*
X52810Y123471D01*
X51859Y124216D01*
X50864Y124903D01*
X49830Y125528D01*
X48759Y126090D01*
X47657Y126586D01*
X46527Y127015D01*
X45373Y127374D01*
X44200Y127663D01*
X43011Y127881D01*
X41811Y128027D01*
X40604Y128100D01*
X39396Y128100D01*
X38189Y128027D01*
X36989Y127881D01*
X35800Y127663D01*
X34627Y127374D01*
X33473Y127015D01*
X32343Y126586D01*
X31241Y126090D01*
X30170Y125528D01*
X29136Y124903D01*
X28141Y124216D01*
X27190Y123471D01*
X26285Y122669D01*
X25431Y121815D01*
X24629Y120910D01*
X23884Y119959D01*
X23197Y118964D01*
X22572Y117930D01*
X22010Y116859D01*
X21514Y115757D01*
X21085Y114627D01*
X20726Y113473D01*
X20437Y112300D01*
X20219Y111111D01*
X20073Y109911D01*
X20000Y108704D01*
X20000Y107496D01*
X20073Y106289D01*
X20219Y105089D01*
X20437Y103900D01*
X20726Y102727D01*
X21085Y101573D01*
X21514Y100443D01*
X22010Y99341D01*
X22572Y98270D01*
X23197Y97236D01*
X23884Y96241D01*
X24629Y95290D01*
X25431Y94385D01*
X26285Y93531D01*
X27190Y92729D01*
X28141Y91984D01*
X29136Y91297D01*
X30170Y90672D01*
X31241Y90110D01*
X32343Y89614D01*
X33473Y89185D01*
X34627Y88826D01*
X35800Y88537D01*
X36989Y88319D01*
X38189Y88173D01*
X39396Y88100D01*
X40604Y88100D01*
X41811Y88173D01*
X43011Y88319D01*
X44200Y88537D01*
X45373Y88826D01*
X46527Y89185D01*
X47657Y89614D01*
X48759Y90110D01*
X49830Y90672D01*
X50864Y91297D01*
X51859Y91984D01*
X52810Y92729D01*
X53715Y93531D01*
X54569Y94385D01*
X55371Y95290D01*
X56116Y96241D01*
X56803Y97236D01*
X57428Y98270D01*
X57990Y99341D01*
X58486Y100443D01*
X58915Y101573D01*
X59274Y102727D01*
X59563Y103900D01*
X59781Y105089D01*
X59927Y106289D01*
X60000Y107496D01*
M02*
