G04 EAGLE Gerber RS-274X export*
G75*
%MOMM*%
%FSLAX34Y34*%
%LPD*%
%INSoldermask Top*%
%IPPOS*%
%AMOC8*
5,1,8,0,0,1.08239X$1,22.5*%
G01*
%ADD10R,1.973200X2.003200*%
%ADD11R,2.003200X1.973200*%
%ADD12C,2.200300*%
%ADD13R,1.803200X2.203200*%
%ADD14C,0.353406*%
%ADD15R,0.853200X0.823200*%
%ADD16R,0.678200X0.703200*%
%ADD17R,1.603200X1.353200*%
%ADD18R,1.353200X1.603200*%
%ADD19C,2.082800*%
%ADD20C,0.909600*%


D10*
X117000Y180160D03*
X117000Y221000D03*
D11*
X185840Y267500D03*
X145000Y267500D03*
D12*
X117200Y132600D03*
X117200Y97600D03*
X117200Y62600D03*
X117200Y27600D03*
X255900Y27400D03*
X255900Y62400D03*
X255900Y97400D03*
X255900Y132400D03*
D13*
X156100Y299900D03*
X181500Y299900D03*
X181500Y395300D03*
X156100Y395300D03*
D14*
X281499Y445251D02*
X281499Y464349D01*
X281499Y445251D02*
X277001Y445251D01*
X277001Y464349D01*
X281499Y464349D01*
X281499Y448608D02*
X277001Y448608D01*
X277001Y451965D02*
X281499Y451965D01*
X281499Y455322D02*
X277001Y455322D01*
X277001Y458679D02*
X281499Y458679D01*
X281499Y462036D02*
X277001Y462036D01*
X294199Y464349D02*
X294199Y445251D01*
X289701Y445251D01*
X289701Y464349D01*
X294199Y464349D01*
X294199Y448608D02*
X289701Y448608D01*
X289701Y451965D02*
X294199Y451965D01*
X294199Y455322D02*
X289701Y455322D01*
X289701Y458679D02*
X294199Y458679D01*
X294199Y462036D02*
X289701Y462036D01*
X306899Y464349D02*
X306899Y445251D01*
X302401Y445251D01*
X302401Y464349D01*
X306899Y464349D01*
X306899Y448608D02*
X302401Y448608D01*
X302401Y451965D02*
X306899Y451965D01*
X306899Y455322D02*
X302401Y455322D01*
X302401Y458679D02*
X306899Y458679D01*
X306899Y462036D02*
X302401Y462036D01*
X319599Y464349D02*
X319599Y445251D01*
X315101Y445251D01*
X315101Y464349D01*
X319599Y464349D01*
X319599Y448608D02*
X315101Y448608D01*
X315101Y451965D02*
X319599Y451965D01*
X319599Y455322D02*
X315101Y455322D01*
X315101Y458679D02*
X319599Y458679D01*
X319599Y462036D02*
X315101Y462036D01*
X332299Y464349D02*
X332299Y445251D01*
X327801Y445251D01*
X327801Y464349D01*
X332299Y464349D01*
X332299Y448608D02*
X327801Y448608D01*
X327801Y451965D02*
X332299Y451965D01*
X332299Y455322D02*
X327801Y455322D01*
X327801Y458679D02*
X332299Y458679D01*
X332299Y462036D02*
X327801Y462036D01*
X344999Y464349D02*
X344999Y445251D01*
X340501Y445251D01*
X340501Y464349D01*
X344999Y464349D01*
X344999Y448608D02*
X340501Y448608D01*
X340501Y451965D02*
X344999Y451965D01*
X344999Y455322D02*
X340501Y455322D01*
X340501Y458679D02*
X344999Y458679D01*
X344999Y462036D02*
X340501Y462036D01*
X357699Y464349D02*
X357699Y445251D01*
X353201Y445251D01*
X353201Y464349D01*
X357699Y464349D01*
X357699Y448608D02*
X353201Y448608D01*
X353201Y451965D02*
X357699Y451965D01*
X357699Y455322D02*
X353201Y455322D01*
X353201Y458679D02*
X357699Y458679D01*
X357699Y462036D02*
X353201Y462036D01*
X370399Y464349D02*
X370399Y445251D01*
X365901Y445251D01*
X365901Y464349D01*
X370399Y464349D01*
X370399Y448608D02*
X365901Y448608D01*
X365901Y451965D02*
X370399Y451965D01*
X370399Y455322D02*
X365901Y455322D01*
X365901Y458679D02*
X370399Y458679D01*
X370399Y462036D02*
X365901Y462036D01*
X370399Y538051D02*
X370399Y557149D01*
X370399Y538051D02*
X365901Y538051D01*
X365901Y557149D01*
X370399Y557149D01*
X370399Y541408D02*
X365901Y541408D01*
X365901Y544765D02*
X370399Y544765D01*
X370399Y548122D02*
X365901Y548122D01*
X365901Y551479D02*
X370399Y551479D01*
X370399Y554836D02*
X365901Y554836D01*
X357699Y557149D02*
X357699Y538051D01*
X353201Y538051D01*
X353201Y557149D01*
X357699Y557149D01*
X357699Y541408D02*
X353201Y541408D01*
X353201Y544765D02*
X357699Y544765D01*
X357699Y548122D02*
X353201Y548122D01*
X353201Y551479D02*
X357699Y551479D01*
X357699Y554836D02*
X353201Y554836D01*
X344999Y557149D02*
X344999Y538051D01*
X340501Y538051D01*
X340501Y557149D01*
X344999Y557149D01*
X344999Y541408D02*
X340501Y541408D01*
X340501Y544765D02*
X344999Y544765D01*
X344999Y548122D02*
X340501Y548122D01*
X340501Y551479D02*
X344999Y551479D01*
X344999Y554836D02*
X340501Y554836D01*
X332299Y557149D02*
X332299Y538051D01*
X327801Y538051D01*
X327801Y557149D01*
X332299Y557149D01*
X332299Y541408D02*
X327801Y541408D01*
X327801Y544765D02*
X332299Y544765D01*
X332299Y548122D02*
X327801Y548122D01*
X327801Y551479D02*
X332299Y551479D01*
X332299Y554836D02*
X327801Y554836D01*
X319599Y557149D02*
X319599Y538051D01*
X315101Y538051D01*
X315101Y557149D01*
X319599Y557149D01*
X319599Y541408D02*
X315101Y541408D01*
X315101Y544765D02*
X319599Y544765D01*
X319599Y548122D02*
X315101Y548122D01*
X315101Y551479D02*
X319599Y551479D01*
X319599Y554836D02*
X315101Y554836D01*
X306899Y557149D02*
X306899Y538051D01*
X302401Y538051D01*
X302401Y557149D01*
X306899Y557149D01*
X306899Y541408D02*
X302401Y541408D01*
X302401Y544765D02*
X306899Y544765D01*
X306899Y548122D02*
X302401Y548122D01*
X302401Y551479D02*
X306899Y551479D01*
X306899Y554836D02*
X302401Y554836D01*
X294199Y557149D02*
X294199Y538051D01*
X289701Y538051D01*
X289701Y557149D01*
X294199Y557149D01*
X294199Y541408D02*
X289701Y541408D01*
X289701Y544765D02*
X294199Y544765D01*
X294199Y548122D02*
X289701Y548122D01*
X289701Y551479D02*
X294199Y551479D01*
X294199Y554836D02*
X289701Y554836D01*
X281499Y557149D02*
X281499Y538051D01*
X277001Y538051D01*
X277001Y557149D01*
X281499Y557149D01*
X281499Y541408D02*
X277001Y541408D01*
X277001Y544765D02*
X281499Y544765D01*
X281499Y548122D02*
X277001Y548122D01*
X277001Y551479D02*
X281499Y551479D01*
X281499Y554836D02*
X277001Y554836D01*
D15*
X279300Y567000D03*
X270500Y567000D03*
D16*
X167240Y413000D03*
X157000Y413000D03*
D17*
X154000Y186500D03*
X154000Y210000D03*
D18*
X171000Y128500D03*
X194500Y128500D03*
D13*
X232300Y299300D03*
X257700Y299300D03*
X257700Y394700D03*
X232300Y394700D03*
D10*
X226000Y177080D03*
X226000Y217920D03*
D11*
X254420Y267000D03*
X213580Y267000D03*
D16*
X222760Y413000D03*
X233000Y413000D03*
D17*
X178000Y186500D03*
X178000Y210000D03*
D18*
X171500Y96000D03*
X195000Y96000D03*
D13*
X302800Y298300D03*
X328200Y298300D03*
X328200Y393700D03*
X302800Y393700D03*
D10*
X261500Y176080D03*
X261500Y216920D03*
D11*
X320920Y267000D03*
X280080Y267000D03*
D16*
X292260Y412000D03*
X302500Y412000D03*
D17*
X300500Y176000D03*
X300500Y199500D03*
D18*
X308000Y148000D03*
X331500Y148000D03*
D13*
X376300Y298300D03*
X401700Y298300D03*
X401700Y393700D03*
X376300Y393700D03*
D10*
X357000Y175580D03*
X357000Y216420D03*
D11*
X385920Y266500D03*
X345080Y266500D03*
D16*
X385240Y411500D03*
X375000Y411500D03*
D17*
X322000Y176500D03*
X322000Y200000D03*
D18*
X195000Y39000D03*
X171500Y39000D03*
D19*
X452500Y447000D03*
X452500Y478000D03*
X452000Y508500D03*
X452000Y539000D03*
D20*
X256490Y559146D03*
X257500Y412500D03*
X349000Y407500D03*
X176500Y369000D03*
X490145Y416904D03*
X205500Y151000D03*
X205520Y163032D03*
X153000Y98500D03*
X144000Y89500D03*
X173500Y232000D03*
X180500Y239000D03*
X171000Y162000D03*
X178500Y154500D03*
X207215Y108459D03*
X214906Y115995D03*
X234000Y236000D03*
X234000Y244500D03*
X305500Y121500D03*
X312000Y128000D03*
X313500Y232459D03*
X313500Y222500D03*
X195187Y68606D03*
X202000Y75500D03*
X360000Y244500D03*
X369500Y254000D03*
M02*
