G04 EAGLE Gerber RS-274X export*
G75*
%MOMM*%
%FSLAX34Y34*%
%LPD*%
%INSolderpaste Top*%
%IPPOS*%
%AMOC8*
5,1,8,0,0,1.08239X$1,22.5*%
G01*
%ADD10R,1.770000X1.800000*%
%ADD11R,1.800000X1.770000*%
%ADD12R,1.600000X2.000000*%
%ADD13C,0.150000*%
%ADD14R,0.650000X0.620000*%
%ADD15R,0.475000X0.500000*%
%ADD16R,1.400000X1.150000*%
%ADD17R,1.150000X1.400000*%


D10*
X117000Y180160D03*
X117000Y221000D03*
D11*
X185840Y267500D03*
X145000Y267500D03*
D12*
X156100Y299900D03*
X181500Y299900D03*
X181500Y395300D03*
X156100Y395300D03*
D13*
X281500Y445250D02*
X281500Y464350D01*
X281500Y445250D02*
X277000Y445250D01*
X277000Y464350D01*
X281500Y464350D01*
X281500Y446675D02*
X277000Y446675D01*
X277000Y448100D02*
X281500Y448100D01*
X281500Y449525D02*
X277000Y449525D01*
X277000Y450950D02*
X281500Y450950D01*
X281500Y452375D02*
X277000Y452375D01*
X277000Y453800D02*
X281500Y453800D01*
X281500Y455225D02*
X277000Y455225D01*
X277000Y456650D02*
X281500Y456650D01*
X281500Y458075D02*
X277000Y458075D01*
X277000Y459500D02*
X281500Y459500D01*
X281500Y460925D02*
X277000Y460925D01*
X277000Y462350D02*
X281500Y462350D01*
X281500Y463775D02*
X277000Y463775D01*
X294200Y464350D02*
X294200Y445250D01*
X289700Y445250D01*
X289700Y464350D01*
X294200Y464350D01*
X294200Y446675D02*
X289700Y446675D01*
X289700Y448100D02*
X294200Y448100D01*
X294200Y449525D02*
X289700Y449525D01*
X289700Y450950D02*
X294200Y450950D01*
X294200Y452375D02*
X289700Y452375D01*
X289700Y453800D02*
X294200Y453800D01*
X294200Y455225D02*
X289700Y455225D01*
X289700Y456650D02*
X294200Y456650D01*
X294200Y458075D02*
X289700Y458075D01*
X289700Y459500D02*
X294200Y459500D01*
X294200Y460925D02*
X289700Y460925D01*
X289700Y462350D02*
X294200Y462350D01*
X294200Y463775D02*
X289700Y463775D01*
X306900Y464350D02*
X306900Y445250D01*
X302400Y445250D01*
X302400Y464350D01*
X306900Y464350D01*
X306900Y446675D02*
X302400Y446675D01*
X302400Y448100D02*
X306900Y448100D01*
X306900Y449525D02*
X302400Y449525D01*
X302400Y450950D02*
X306900Y450950D01*
X306900Y452375D02*
X302400Y452375D01*
X302400Y453800D02*
X306900Y453800D01*
X306900Y455225D02*
X302400Y455225D01*
X302400Y456650D02*
X306900Y456650D01*
X306900Y458075D02*
X302400Y458075D01*
X302400Y459500D02*
X306900Y459500D01*
X306900Y460925D02*
X302400Y460925D01*
X302400Y462350D02*
X306900Y462350D01*
X306900Y463775D02*
X302400Y463775D01*
X319600Y464350D02*
X319600Y445250D01*
X315100Y445250D01*
X315100Y464350D01*
X319600Y464350D01*
X319600Y446675D02*
X315100Y446675D01*
X315100Y448100D02*
X319600Y448100D01*
X319600Y449525D02*
X315100Y449525D01*
X315100Y450950D02*
X319600Y450950D01*
X319600Y452375D02*
X315100Y452375D01*
X315100Y453800D02*
X319600Y453800D01*
X319600Y455225D02*
X315100Y455225D01*
X315100Y456650D02*
X319600Y456650D01*
X319600Y458075D02*
X315100Y458075D01*
X315100Y459500D02*
X319600Y459500D01*
X319600Y460925D02*
X315100Y460925D01*
X315100Y462350D02*
X319600Y462350D01*
X319600Y463775D02*
X315100Y463775D01*
X332300Y464350D02*
X332300Y445250D01*
X327800Y445250D01*
X327800Y464350D01*
X332300Y464350D01*
X332300Y446675D02*
X327800Y446675D01*
X327800Y448100D02*
X332300Y448100D01*
X332300Y449525D02*
X327800Y449525D01*
X327800Y450950D02*
X332300Y450950D01*
X332300Y452375D02*
X327800Y452375D01*
X327800Y453800D02*
X332300Y453800D01*
X332300Y455225D02*
X327800Y455225D01*
X327800Y456650D02*
X332300Y456650D01*
X332300Y458075D02*
X327800Y458075D01*
X327800Y459500D02*
X332300Y459500D01*
X332300Y460925D02*
X327800Y460925D01*
X327800Y462350D02*
X332300Y462350D01*
X332300Y463775D02*
X327800Y463775D01*
X345000Y464350D02*
X345000Y445250D01*
X340500Y445250D01*
X340500Y464350D01*
X345000Y464350D01*
X345000Y446675D02*
X340500Y446675D01*
X340500Y448100D02*
X345000Y448100D01*
X345000Y449525D02*
X340500Y449525D01*
X340500Y450950D02*
X345000Y450950D01*
X345000Y452375D02*
X340500Y452375D01*
X340500Y453800D02*
X345000Y453800D01*
X345000Y455225D02*
X340500Y455225D01*
X340500Y456650D02*
X345000Y456650D01*
X345000Y458075D02*
X340500Y458075D01*
X340500Y459500D02*
X345000Y459500D01*
X345000Y460925D02*
X340500Y460925D01*
X340500Y462350D02*
X345000Y462350D01*
X345000Y463775D02*
X340500Y463775D01*
X357700Y464350D02*
X357700Y445250D01*
X353200Y445250D01*
X353200Y464350D01*
X357700Y464350D01*
X357700Y446675D02*
X353200Y446675D01*
X353200Y448100D02*
X357700Y448100D01*
X357700Y449525D02*
X353200Y449525D01*
X353200Y450950D02*
X357700Y450950D01*
X357700Y452375D02*
X353200Y452375D01*
X353200Y453800D02*
X357700Y453800D01*
X357700Y455225D02*
X353200Y455225D01*
X353200Y456650D02*
X357700Y456650D01*
X357700Y458075D02*
X353200Y458075D01*
X353200Y459500D02*
X357700Y459500D01*
X357700Y460925D02*
X353200Y460925D01*
X353200Y462350D02*
X357700Y462350D01*
X357700Y463775D02*
X353200Y463775D01*
X370400Y464350D02*
X370400Y445250D01*
X365900Y445250D01*
X365900Y464350D01*
X370400Y464350D01*
X370400Y446675D02*
X365900Y446675D01*
X365900Y448100D02*
X370400Y448100D01*
X370400Y449525D02*
X365900Y449525D01*
X365900Y450950D02*
X370400Y450950D01*
X370400Y452375D02*
X365900Y452375D01*
X365900Y453800D02*
X370400Y453800D01*
X370400Y455225D02*
X365900Y455225D01*
X365900Y456650D02*
X370400Y456650D01*
X370400Y458075D02*
X365900Y458075D01*
X365900Y459500D02*
X370400Y459500D01*
X370400Y460925D02*
X365900Y460925D01*
X365900Y462350D02*
X370400Y462350D01*
X370400Y463775D02*
X365900Y463775D01*
X370400Y538050D02*
X370400Y557150D01*
X370400Y538050D02*
X365900Y538050D01*
X365900Y557150D01*
X370400Y557150D01*
X370400Y539475D02*
X365900Y539475D01*
X365900Y540900D02*
X370400Y540900D01*
X370400Y542325D02*
X365900Y542325D01*
X365900Y543750D02*
X370400Y543750D01*
X370400Y545175D02*
X365900Y545175D01*
X365900Y546600D02*
X370400Y546600D01*
X370400Y548025D02*
X365900Y548025D01*
X365900Y549450D02*
X370400Y549450D01*
X370400Y550875D02*
X365900Y550875D01*
X365900Y552300D02*
X370400Y552300D01*
X370400Y553725D02*
X365900Y553725D01*
X365900Y555150D02*
X370400Y555150D01*
X370400Y556575D02*
X365900Y556575D01*
X357700Y557150D02*
X357700Y538050D01*
X353200Y538050D01*
X353200Y557150D01*
X357700Y557150D01*
X357700Y539475D02*
X353200Y539475D01*
X353200Y540900D02*
X357700Y540900D01*
X357700Y542325D02*
X353200Y542325D01*
X353200Y543750D02*
X357700Y543750D01*
X357700Y545175D02*
X353200Y545175D01*
X353200Y546600D02*
X357700Y546600D01*
X357700Y548025D02*
X353200Y548025D01*
X353200Y549450D02*
X357700Y549450D01*
X357700Y550875D02*
X353200Y550875D01*
X353200Y552300D02*
X357700Y552300D01*
X357700Y553725D02*
X353200Y553725D01*
X353200Y555150D02*
X357700Y555150D01*
X357700Y556575D02*
X353200Y556575D01*
X345000Y557150D02*
X345000Y538050D01*
X340500Y538050D01*
X340500Y557150D01*
X345000Y557150D01*
X345000Y539475D02*
X340500Y539475D01*
X340500Y540900D02*
X345000Y540900D01*
X345000Y542325D02*
X340500Y542325D01*
X340500Y543750D02*
X345000Y543750D01*
X345000Y545175D02*
X340500Y545175D01*
X340500Y546600D02*
X345000Y546600D01*
X345000Y548025D02*
X340500Y548025D01*
X340500Y549450D02*
X345000Y549450D01*
X345000Y550875D02*
X340500Y550875D01*
X340500Y552300D02*
X345000Y552300D01*
X345000Y553725D02*
X340500Y553725D01*
X340500Y555150D02*
X345000Y555150D01*
X345000Y556575D02*
X340500Y556575D01*
X332300Y557150D02*
X332300Y538050D01*
X327800Y538050D01*
X327800Y557150D01*
X332300Y557150D01*
X332300Y539475D02*
X327800Y539475D01*
X327800Y540900D02*
X332300Y540900D01*
X332300Y542325D02*
X327800Y542325D01*
X327800Y543750D02*
X332300Y543750D01*
X332300Y545175D02*
X327800Y545175D01*
X327800Y546600D02*
X332300Y546600D01*
X332300Y548025D02*
X327800Y548025D01*
X327800Y549450D02*
X332300Y549450D01*
X332300Y550875D02*
X327800Y550875D01*
X327800Y552300D02*
X332300Y552300D01*
X332300Y553725D02*
X327800Y553725D01*
X327800Y555150D02*
X332300Y555150D01*
X332300Y556575D02*
X327800Y556575D01*
X319600Y557150D02*
X319600Y538050D01*
X315100Y538050D01*
X315100Y557150D01*
X319600Y557150D01*
X319600Y539475D02*
X315100Y539475D01*
X315100Y540900D02*
X319600Y540900D01*
X319600Y542325D02*
X315100Y542325D01*
X315100Y543750D02*
X319600Y543750D01*
X319600Y545175D02*
X315100Y545175D01*
X315100Y546600D02*
X319600Y546600D01*
X319600Y548025D02*
X315100Y548025D01*
X315100Y549450D02*
X319600Y549450D01*
X319600Y550875D02*
X315100Y550875D01*
X315100Y552300D02*
X319600Y552300D01*
X319600Y553725D02*
X315100Y553725D01*
X315100Y555150D02*
X319600Y555150D01*
X319600Y556575D02*
X315100Y556575D01*
X306900Y557150D02*
X306900Y538050D01*
X302400Y538050D01*
X302400Y557150D01*
X306900Y557150D01*
X306900Y539475D02*
X302400Y539475D01*
X302400Y540900D02*
X306900Y540900D01*
X306900Y542325D02*
X302400Y542325D01*
X302400Y543750D02*
X306900Y543750D01*
X306900Y545175D02*
X302400Y545175D01*
X302400Y546600D02*
X306900Y546600D01*
X306900Y548025D02*
X302400Y548025D01*
X302400Y549450D02*
X306900Y549450D01*
X306900Y550875D02*
X302400Y550875D01*
X302400Y552300D02*
X306900Y552300D01*
X306900Y553725D02*
X302400Y553725D01*
X302400Y555150D02*
X306900Y555150D01*
X306900Y556575D02*
X302400Y556575D01*
X294200Y557150D02*
X294200Y538050D01*
X289700Y538050D01*
X289700Y557150D01*
X294200Y557150D01*
X294200Y539475D02*
X289700Y539475D01*
X289700Y540900D02*
X294200Y540900D01*
X294200Y542325D02*
X289700Y542325D01*
X289700Y543750D02*
X294200Y543750D01*
X294200Y545175D02*
X289700Y545175D01*
X289700Y546600D02*
X294200Y546600D01*
X294200Y548025D02*
X289700Y548025D01*
X289700Y549450D02*
X294200Y549450D01*
X294200Y550875D02*
X289700Y550875D01*
X289700Y552300D02*
X294200Y552300D01*
X294200Y553725D02*
X289700Y553725D01*
X289700Y555150D02*
X294200Y555150D01*
X294200Y556575D02*
X289700Y556575D01*
X281500Y557150D02*
X281500Y538050D01*
X277000Y538050D01*
X277000Y557150D01*
X281500Y557150D01*
X281500Y539475D02*
X277000Y539475D01*
X277000Y540900D02*
X281500Y540900D01*
X281500Y542325D02*
X277000Y542325D01*
X277000Y543750D02*
X281500Y543750D01*
X281500Y545175D02*
X277000Y545175D01*
X277000Y546600D02*
X281500Y546600D01*
X281500Y548025D02*
X277000Y548025D01*
X277000Y549450D02*
X281500Y549450D01*
X281500Y550875D02*
X277000Y550875D01*
X277000Y552300D02*
X281500Y552300D01*
X281500Y553725D02*
X277000Y553725D01*
X277000Y555150D02*
X281500Y555150D01*
X281500Y556575D02*
X277000Y556575D01*
D14*
X279300Y567000D03*
X270500Y567000D03*
D15*
X167240Y413000D03*
X157000Y413000D03*
D16*
X154000Y186500D03*
X154000Y210000D03*
D17*
X171000Y128500D03*
X194500Y128500D03*
D12*
X232300Y299300D03*
X257700Y299300D03*
X257700Y394700D03*
X232300Y394700D03*
D10*
X226000Y177080D03*
X226000Y217920D03*
D11*
X254420Y267000D03*
X213580Y267000D03*
D15*
X222760Y413000D03*
X233000Y413000D03*
D16*
X178000Y186500D03*
X178000Y210000D03*
D17*
X171500Y96000D03*
X195000Y96000D03*
D12*
X302800Y298300D03*
X328200Y298300D03*
X328200Y393700D03*
X302800Y393700D03*
D10*
X261500Y176080D03*
X261500Y216920D03*
D11*
X320920Y267000D03*
X280080Y267000D03*
D15*
X292260Y412000D03*
X302500Y412000D03*
D16*
X300500Y176000D03*
X300500Y199500D03*
D17*
X308000Y148000D03*
X331500Y148000D03*
D12*
X376300Y298300D03*
X401700Y298300D03*
X401700Y393700D03*
X376300Y393700D03*
D10*
X357000Y175580D03*
X357000Y216420D03*
D11*
X385920Y266500D03*
X345080Y266500D03*
D15*
X385240Y411500D03*
X375000Y411500D03*
D16*
X322000Y176500D03*
X322000Y200000D03*
D17*
X195000Y39000D03*
X171500Y39000D03*
M02*
